<svg width="51" height="51" viewBox="0 0 51 51" fill="none" xmlns="http://www.w3.org/2000/svg">
<path d="M41.4375 47.8125H38.25V43.0312C38.2475 40.9186 37.4071 38.8932 35.9132 37.3993C34.4193 35.9054 32.3939 35.065 30.2812 35.0625H20.7188C18.6061 35.065 16.5807 35.9054 15.0868 37.3993C13.5929 38.8932 12.7525 40.9186 12.75 43.0312V47.8125H9.5625V43.0312C9.56587 40.0735 10.7423 37.2378 12.8338 35.1463C14.9253 33.0548 17.761 31.8784 20.7188 31.875H30.2812C33.239 31.8784 36.0747 33.0548 38.1662 35.1463C40.2577 37.2378 41.4341 40.0735 41.4375 43.0312V47.8125ZM7.96875 9.5625C7.54606 9.5625 7.14068 9.73041 6.8418 10.0293C6.54291 10.3282 6.375 10.7336 6.375 11.1562V25.5H9.5625V11.1562C9.5625 10.7336 9.39459 10.3282 9.0957 10.0293C8.79681 9.73041 8.39144 9.5625 7.96875 9.5625Z" fill="#AEB1B5"/>
<path d="M6.375 3.1875V6.375H14.3438V17.5312C14.3438 20.4901 15.5191 23.3277 17.6113 25.4199C19.7035 27.5121 22.5412 28.6875 25.5 28.6875C28.4588 28.6875 31.2965 27.5121 33.3887 25.4199C35.4809 23.3277 36.6562 20.4901 36.6562 17.5312V6.375H44.625V3.1875H6.375ZM17.5312 6.375H33.4688V11.1562H17.5312V6.375ZM25.5 25.5C23.3866 25.5 21.3597 24.6604 19.8652 23.166C18.3708 21.6716 17.5312 19.6447 17.5312 17.5312V14.3438H33.4688V17.5312C33.4688 19.6447 32.6292 21.6716 31.1348 23.166C29.6403 24.6604 27.6134 25.5 25.5 25.5Z" fill="#AEB1B5"/>
</svg>
