<svg width="118" height="118" viewBox="0 0 118 118" fill="none" xmlns="http://www.w3.org/2000/svg">
<path fill-rule="evenodd" clip-rule="evenodd" d="M30.8324 10.3837C26.8499 10.9048 24.7455 11.8636 23.241 13.3337C21.7415 14.8087 20.763 16.8737 20.2271 20.7726C19.6765 24.7895 19.6666 30.1093 19.6666 37.7351V79.8709C21.6122 78.5392 23.7727 77.5529 26.0534 76.9553C28.6494 76.2719 31.678 76.2719 36.1178 76.2768H98.3333V37.74C98.3333 30.1093 98.3235 24.7895 97.7728 20.7726C97.2369 16.8737 96.2585 14.8087 94.7589 13.3337C93.2544 11.8636 91.15 10.9048 87.1675 10.3837C83.067 9.84284 77.639 9.83301 69.851 9.83301H48.1489C40.3609 9.83301 34.9329 9.84284 30.8324 10.3837ZM33.2317 32.4251C33.2317 30.2224 35.0509 28.4377 37.2978 28.4377H80.7021C81.7689 28.4285 82.7958 28.8425 83.5579 29.5889C84.32 30.3354 84.7552 31.3535 84.7682 32.4202C84.7565 33.4877 84.3219 34.5071 83.5596 35.2546C82.7974 36.0021 81.7697 36.4168 80.7021 36.4076H37.2978C36.231 36.4168 35.2041 36.0028 34.442 35.2563C33.6799 34.5099 33.2447 33.4918 33.2317 32.4251ZM37.2978 47.0423C36.231 47.0332 35.2041 47.4471 34.442 48.1936C33.6799 48.94 33.2447 49.9581 33.2317 51.0248C33.2317 53.2275 35.0509 55.0123 37.2978 55.0123H64.423C65.4906 55.0228 66.5188 54.6094 67.282 53.8628C68.0452 53.1162 68.4811 52.0973 68.494 51.0298C68.4824 49.9613 68.047 48.9412 67.2837 48.1936C66.5204 47.4459 65.4915 47.0319 64.423 47.0423H37.2978Z" fill="#99D9DB"/>
<path d="M36.7423 84.2471H98.3334C98.3186 89.8029 98.2301 93.9526 97.7778 97.2271C97.2419 101.126 96.2635 103.191 94.7639 104.666C93.2594 106.136 91.155 107.095 87.1725 107.616C83.072 108.157 77.644 108.167 69.856 108.167H48.149C40.361 108.167 34.933 108.157 30.8325 107.621C26.85 107.095 24.7456 106.136 23.2411 104.666C21.7415 103.191 20.7631 101.126 20.2272 97.2271C20.0256 95.7521 19.8929 94.0951 19.8142 92.2121C20.4896 90.3713 21.6017 88.7219 23.055 87.4056C24.5083 86.0894 26.2593 85.1455 28.1578 84.6552C29.5836 84.2815 31.4372 84.2471 36.7423 84.2471Z" fill="#99D9DB"/>
</svg>
