<svg width="51" height="51" viewBox="0 0 51 51" fill="none" xmlns="http://www.w3.org/2000/svg">
<path d="M48.8867 24.2249C48.9393 24.0368 49.0014 23.8535 49.0461 23.6623C49.0556 23.624 49.0588 23.5858 49.0684 23.5475C49.5237 21.7097 49.5219 19.7884 49.0632 17.9514C48.6045 16.1144 47.7029 14.4177 46.4371 13.0097C45.2699 11.4402 43.7492 10.168 41.9983 9.29627C40.2474 8.42456 38.3157 7.9779 36.3598 7.99254H36.2769C36.1176 7.99254 35.9391 8.00369 35.7701 8.00847H35.5773C32.209 8.19431 28.861 8.64946 25.5653 9.36954L18.4301 8.23H18.3743C14.9759 7.64287 11.4787 8.20359 8.43413 9.82375C6.71892 10.8575 5.24596 12.2478 4.11507 13.9006L4.04972 13.9882L4.00988 14.044C2.51376 16.2634 1.7002 18.8723 1.66961 21.5487C1.63902 24.2251 2.39274 26.8519 3.83776 29.1049C3.80747 29.1591 3.78994 29.2197 3.76126 29.2755C3.62313 29.5518 3.5054 29.8378 3.40904 30.1313C3.35804 30.2907 3.31979 30.4596 3.28313 30.6254C3.25444 30.7608 3.22576 30.8947 3.20663 31.0302C3.18696 31.199 3.17526 31.3687 3.17157 31.5386C3.17157 31.6757 3.15563 31.8095 3.16201 31.945C3.17316 32.1235 3.19388 32.3004 3.22257 32.4773C3.24169 32.6032 3.25126 32.7291 3.27994 32.8534C3.32776 33.0495 3.39151 33.2423 3.46482 33.4304C3.50147 33.5308 3.52538 33.6344 3.57001 33.7332C3.70069 34.0248 3.86007 34.3006 4.04813 34.5588C4.76921 35.5912 5.83318 36.3344 7.05076 36.6561C7.00532 37.3357 7.11845 38.0166 7.3812 38.645C7.64396 39.2734 8.04915 39.8321 8.56482 40.2771C9.4781 41.0773 10.5982 41.6042 11.7969 41.7976C12.044 42.5992 12.4775 43.3308 13.0608 43.9332C13.8566 44.7961 14.9321 45.3494 16.0969 45.4951C16.3742 46.4402 16.9001 47.2944 17.6205 47.9654C18.5082 48.8388 19.6972 49.336 20.9419 49.3519C21.8573 49.3476 22.7564 49.1095 23.554 48.6603C24.7398 49.3392 26.1295 49.5687 27.4715 49.3073C28.1758 49.1784 28.8432 48.8962 29.4263 48.4805C30.0093 48.0649 30.4939 47.5261 30.8454 46.9023C30.8789 46.8498 30.898 46.8035 30.9283 46.7509C32.283 47.0283 33.6935 46.7844 34.8776 46.0688C35.919 45.4809 36.7118 44.5352 37.1089 43.4073C38.5337 43.4264 39.9139 42.9132 40.9769 41.9649C41.5594 41.4558 42.0117 40.8148 42.2961 40.0954C42.5806 39.3759 42.6889 38.5989 42.6121 37.8291C42.6121 37.7845 42.6009 37.7494 42.5978 37.7064C43.4296 37.4572 44.1778 36.9861 44.7621 36.3438C45.5175 35.5472 46.0038 34.5336 46.1525 33.4459C46.3012 32.3582 46.1047 31.2512 45.5908 30.2811C47.0236 28.6256 48.1078 26.698 48.7783 24.6138C48.8166 24.491 48.8484 24.3572 48.8867 24.2249ZM46.1582 21.5155C46.0787 22.3168 45.9026 23.1056 45.6339 23.8647L45.5829 24.0241C45.0533 25.4419 44.2893 26.7607 43.3229 27.9256C38.3233 23.5619 31.051 17.1933 30.4534 16.6227C29.7631 15.9619 28.8462 15.5902 27.8906 15.5836C27.5943 15.581 27.2993 15.6235 27.0157 15.7095C26.0052 16.0282 23.5222 16.8251 21.3547 17.6299C20.5259 17.9375 19.5792 17.1518 19.2908 16.4824C19.0995 16.0808 19.0676 15.6218 19.1983 15.1979C19.4581 14.7277 19.8948 14.3787 20.4112 14.2289C25.3138 12.5054 30.4361 11.4859 35.6251 11.2008H35.8179C35.9949 11.2008 36.1702 11.188 36.3327 11.1848C37.5231 11.1652 38.7049 11.3892 39.8055 11.843C41.4377 12.587 42.8707 13.7066 43.9875 15.1102C44.9844 16.2385 45.6815 17.5993 46.0148 19.0675L46.0291 19.1408C46.1058 19.5332 46.1543 19.9305 46.1741 20.3298C46.1789 20.4588 46.1869 20.6214 46.1869 20.7648C46.1869 20.9959 46.1869 21.2254 46.1598 21.4534L46.1582 21.5155ZM6.38616 32.1283C6.37501 32.0598 6.37501 31.9848 6.37501 31.9131C6.35743 31.7596 6.35743 31.6045 6.37501 31.4509C6.3926 31.3604 6.41548 31.271 6.44354 31.1832C6.47541 31.0413 6.52322 30.9027 6.5806 30.7704C6.63319 30.6748 6.69376 30.5823 6.76069 30.4963C6.85555 30.3408 6.97079 30.1988 7.10335 30.0739L7.11291 30.066L10.1108 27.5239C10.3099 27.3706 10.5374 27.258 10.7801 27.1926C11.0229 27.1272 11.2761 27.1103 11.5254 27.1428C11.7747 27.1754 12.0151 27.2568 12.2329 27.3823C12.4506 27.5079 12.6415 27.6752 12.7946 27.8746C12.9061 28.0378 12.9785 28.2245 13.0061 28.4201C13.0337 28.6158 13.0159 28.8153 12.954 29.0029L8.25244 33.5834C7.92789 33.5892 7.60737 33.5108 7.32217 33.3557C7.03697 33.2007 6.79685 32.9744 6.62522 32.6988C6.50679 32.5273 6.42538 32.333 6.38616 32.1283ZM10.396 35.9453L15.555 30.9186L15.5311 30.8947C15.8214 30.7502 16.1493 30.6989 16.4698 30.7481C16.8794 30.8597 17.2492 31.0892 17.5313 31.4079C17.8118 31.647 17.9998 31.9753 18.0636 32.3387C18.0873 32.7068 18.0066 33.0742 17.8309 33.3985C17.8146 33.4429 17.8008 33.4881 17.7894 33.534L12.5763 38.6133C12.2105 38.6292 11.8456 38.5663 11.5062 38.4288C11.1669 38.2913 10.8611 38.0825 10.6096 37.8164C10.4026 37.5557 10.2729 37.2421 10.2352 36.9114C10.1974 36.5807 10.2531 36.246 10.396 35.9453ZM14.8346 40.862L20.2215 35.6202C20.5642 35.6887 20.8781 35.864 21.1172 36.1206C21.4476 36.4099 21.6775 36.7967 21.7738 37.2251C21.799 37.4094 21.7909 37.5967 21.7499 37.7781L17.0914 42.3123C16.7806 42.37 16.4602 42.3477 16.1605 42.2473C15.8607 42.1469 15.5915 41.9718 15.3781 41.7386C15.1292 41.4943 14.9428 41.1936 14.8346 40.862ZM19.8342 45.6624C19.546 45.4078 19.3183 45.092 19.168 44.738L23.5684 40.4556C23.8823 40.5592 24.1692 40.7298 24.4099 40.9545C24.6346 41.1339 24.8042 41.3731 24.8992 41.6446C24.9532 41.8455 24.9532 42.0572 24.8992 42.2582C24.7001 42.9011 24.3683 43.495 23.9254 44.0017L22.7205 45.4042H22.7301C22.6902 45.4297 22.6456 45.4409 22.6089 45.4696C22.1596 45.8797 21.5814 46.1203 20.9738 46.1501C20.5447 46.1429 20.1356 45.9678 19.8342 45.6624ZM26.9647 46.1517C26.7288 46.1883 26.4913 46.1995 26.2538 46.1836L26.3718 46.0465L26.41 46.0003L26.4116 46.0019C26.8947 45.4048 27.3035 44.7514 27.6293 44.0559L28.3337 44.8018C28.276 44.952 28.2067 45.0974 28.1265 45.2369C28.0129 45.466 27.8497 45.667 27.6487 45.8253C27.4478 45.9835 27.2141 46.095 26.9647 46.1517ZM37.1647 40.215L34.3294 37.0737C34.0859 36.7888 33.7498 36.599 33.3801 36.5375C33.0105 36.4761 32.631 36.547 32.3085 36.7378C31.9859 36.9285 31.741 37.2269 31.6169 37.5805C31.4927 37.934 31.4972 38.3201 31.6296 38.6706C31.7034 38.8694 31.8161 39.0515 31.9611 39.2061L34.2497 41.7561C34.2338 41.9187 34.2003 42.0797 34.1493 42.2343C34.0166 42.6857 33.7137 43.068 33.3046 43.3005C32.8063 43.6273 32.2017 43.7505 31.6152 43.6447L29.7027 41.6143C29.4962 41.3971 29.2324 41.2431 28.9418 41.17C28.6512 41.0969 28.3458 41.1078 28.0612 41.2015C28.0365 41.0467 28.003 40.8935 27.9608 40.7425C27.6976 39.9097 27.2082 39.1664 26.5471 38.5957C26.084 38.1731 25.5533 37.8311 24.9773 37.5837C24.9883 37.2872 24.9697 36.9903 24.9215 36.6976C24.716 35.6123 24.1707 34.6204 23.3644 33.8655C22.7783 33.272 22.0536 32.8338 21.2558 32.5905C21.2638 32.3769 21.2558 32.1649 21.2319 31.953C21.083 30.8796 20.5699 29.8899 19.7784 29.1496C19.0578 28.3951 18.132 27.8682 17.1153 27.6339C16.7694 27.5671 16.4167 27.5431 16.065 27.5622C15.9399 26.9702 15.687 26.4126 15.3239 25.9286C14.9148 25.3973 14.4048 24.9518 13.8233 24.6178C13.2418 24.2838 12.6001 24.0677 11.9349 23.982C11.2698 23.8963 10.5943 23.9426 9.94711 24.1183C9.2999 24.294 8.6937 24.5956 8.16319 25.0058L8.10741 25.0504L6.13913 26.7079C5.21621 25.0273 4.77462 23.1246 4.86291 21.2093C4.95119 19.2939 5.56595 17.44 6.63957 15.8513L6.67304 15.8035C7.54567 14.5024 8.6903 13.4062 10.0279 12.5905C12.4679 11.3198 15.2618 10.8986 17.9679 11.3936L18.7074 11.5115C17.6149 12.0038 16.7422 12.8817 16.2563 13.9771C16.0214 14.5781 15.9096 15.2202 15.9277 15.8652C15.9458 16.5102 16.0933 17.145 16.3614 17.7319C16.8388 18.8867 17.7292 19.8222 18.8589 20.3561C19.9886 20.89 21.2766 20.984 22.4719 20.6198C24.5756 19.8405 26.9886 19.0579 27.8906 18.7727C27.9624 18.7703 28.0337 18.7841 28.0994 18.8131C28.165 18.8421 28.2233 18.8854 28.2699 18.94C29.0493 19.6731 38.4572 27.908 42.3874 31.333L42.7061 31.6055C42.9536 32.0064 43.0594 32.4787 43.0065 32.9469C42.9536 33.415 42.7452 33.8519 42.4145 34.1874C42.1874 34.4322 41.8891 34.5994 41.5618 34.6655L38.7999 31.8653C38.4992 31.5792 38.0992 31.421 37.6842 31.4242C37.2692 31.4274 36.8717 31.5918 36.5756 31.8825C36.2794 32.1733 36.1078 32.5677 36.097 32.9826C36.0862 33.3975 36.237 33.8003 36.5176 34.1061L39.1569 36.7804C39.168 36.8283 39.1808 36.8761 39.1951 36.9223L39.2142 36.9717C39.3339 37.3119 39.4063 37.6669 39.4294 38.0268C39.4736 38.3 39.4501 38.5799 39.3609 38.842C39.2717 39.104 39.1196 39.3402 38.9178 39.5297C38.4413 39.9759 37.8117 40.2213 37.1599 40.215H37.1647Z" fill="#AEB1B5"/>
</svg>
