<svg width="91" height="91" viewBox="0 0 91 91" fill="none" xmlns="http://www.w3.org/2000/svg">
<g id="healthicons:pharmacy-outline">
<g id="Group">
<path id="Vector" fill-rule="evenodd" clip-rule="evenodd" d="M35.7591 15.8361C34.6823 18.3613 34.5951 21.5937 34.7031 24.646H70.1457C71.1922 24.646 72.0529 25.4991 71.9335 26.538C71.2036 32.9175 66.8167 38.4685 60.4334 41.8886C60.5945 42.6337 60.6666 43.4015 60.6666 44.1788C60.6666 47.6273 58.056 50.3497 55.2653 52.0787C53.4181 53.2086 51.4011 54.0337 49.2916 54.5224V50.6037C50.6904 50.2012 52.0288 49.6126 53.2709 48.8539C55.6938 47.3543 56.8749 45.6253 56.8749 44.1788C56.8749 43.9437 56.8654 43.72 56.8484 43.5039C54.0103 44.5598 50.8954 45.2328 47.6138 45.4357V60.6668H43.8221V45.4585C30.7446 44.8177 20.2341 36.7376 19.0663 26.538C18.9469 25.4991 19.8057 24.646 20.8541 24.646H30.9096C30.8015 21.5501 30.8698 17.6352 32.2708 14.3497C33.0746 12.4634 34.3372 10.7287 36.2767 9.48502C38.2104 8.24704 40.6693 7.5835 43.714 7.5835C47.4431 7.5835 50.4765 8.93712 52.541 10.249C53.578 10.9069 54.3895 11.5666 54.9487 12.0671C55.2553 12.342 55.5501 12.6298 55.8322 12.9297L55.8512 12.9487L55.8549 12.9563L55.8587 12.9582C55.8587 12.9582 55.8587 12.962 54.4672 14.1962L55.8606 12.962C56.1835 13.3394 56.3454 13.8285 56.3114 14.324C56.2775 14.8195 56.0504 15.2819 55.6791 15.6118C55.3077 15.9416 54.8218 16.1126 54.3257 16.0879C53.8296 16.0632 53.3631 15.8448 53.0264 15.4796L53.0074 15.4588C52.8187 15.2619 52.6227 15.0722 52.4197 14.89C51.823 14.3586 51.1838 13.8767 50.5087 13.4492C48.8404 12.3913 46.5104 11.3752 43.714 11.3752C41.2191 11.3752 39.5148 11.9136 38.3242 12.6757C37.1412 13.434 36.3241 14.509 35.7591 15.8361ZM23.33 28.4377C25.5576 35.566 34.0737 41.7085 45.4999 41.7085C56.9261 41.7085 65.4441 35.566 67.6698 28.4377H23.33Z" fill="#99D9DB"/>
<path id="Vector_2" d="M30.3333 79.625V83.4166H60.6666V79.625H54.9431C56.1943 78.0855 56.8749 76.1461 56.8749 73.9375C56.8749 71.0084 55.6768 68.5533 53.5439 66.8774C51.4585 65.2413 48.6375 64.4583 45.4999 64.4583C42.6884 64.4583 40.1916 64.2118 38.4493 63.4364C37.6133 63.0648 37.0331 62.6061 36.6559 62.0676C36.2881 61.5425 36.0208 60.8088 36.0208 59.7168C36.0208 58.6286 36.2862 57.8968 36.6559 57.3698C37.0331 56.8314 37.6133 56.3726 38.4493 56.001C39.3536 55.5991 40.4589 55.3374 41.7083 55.182V51.3638C40.0134 51.5458 38.3526 51.8946 36.9099 52.5354C35.6131 53.1117 34.4169 53.9573 33.5486 55.1952C32.6727 56.4465 32.2291 57.9651 32.2291 59.7187C32.2291 61.4724 32.6727 62.9909 33.5486 64.2422C34.4169 65.4801 35.615 66.3257 36.9099 66.902C39.4314 68.0225 42.6239 68.2481 45.4999 68.2481C48.0517 68.2481 49.9665 68.8888 51.2007 69.8595C52.3856 70.7885 53.0833 72.1269 53.0833 73.9356C53.0833 75.748 52.3856 77.0845 51.2007 78.0154C50.3343 78.696 49.1342 79.2136 47.6138 79.4619V72.0416H43.8221V79.625H30.3333Z" fill="#99D9DB"/>
</g>
</g>
</svg>
