<svg width="51" height="51" viewBox="0 0 51 51" fill="none" xmlns="http://www.w3.org/2000/svg">
<path d="M4.25 44.625C3.64792 44.625 3.14358 44.421 2.737 44.013C2.33042 43.605 2.12642 43.1007 2.125 42.5C2.125 41.8979 2.329 41.3936 2.737 40.987C3.145 40.5804 3.64933 40.3764 4.25 40.375H46.75C47.3521 40.375 47.8571 40.579 48.2651 40.987C48.6731 41.395 48.8764 41.8993 48.875 42.5C48.875 43.1021 48.671 43.6071 48.263 44.0151C47.855 44.4231 47.3507 44.6264 46.75 44.625H4.25ZM8.5 38.25C7.33125 38.25 6.33108 37.8342 5.4995 37.0026C4.66792 36.171 4.25142 35.1702 4.25 34V10.625C4.25 9.45625 4.6665 8.45608 5.4995 7.6245C6.3325 6.79292 7.33267 6.37642 8.5 6.375H42.5C43.6688 6.375 44.6696 6.7915 45.5026 7.6245C46.3356 8.4575 46.7514 9.45767 46.75 10.625V34C46.75 35.1688 46.3342 36.1696 45.5026 37.0026C44.671 37.8356 43.6702 38.2514 42.5 38.25H8.5ZM8.5 34H42.5V10.625H8.5V34Z" fill="#AEB1B5"/>
</svg>
