<svg width="69" height="69" viewBox="0 0 69 69" fill="none" xmlns="http://www.w3.org/2000/svg">
<path d="M40.1875 13.6458V9.85417H36.3958V6.0625H32.6042V9.85417H28.8125V13.6458H32.6042V17.4375H36.3958V13.6458H40.1875Z" fill="#879083"/>
<path fill-rule="evenodd" clip-rule="evenodd" d="M48.3776 20.7874L52.1276 10.1594C53.1438 7.27773 51.6954 4.0169 48.6601 3.05571C45.1358 1.93717 39.3724 0.375 34.5001 0.375C29.6279 0.375 23.8645 1.93717 20.3383 3.05571C17.3049 4.01879 15.8565 7.27963 16.8727 10.1594L20.6245 20.7874C19.6061 23.0962 19.1798 25.6225 19.3843 28.1376C19.5888 30.6526 20.4175 33.0769 21.7955 35.1908C23.1734 37.3047 25.057 39.0414 27.2756 40.2436C29.4942 41.4457 31.9777 42.0753 34.5011 42.0753C37.0245 42.0753 39.5079 41.4457 41.7266 40.2436C43.9452 39.0414 45.8288 37.3047 47.2067 35.1908C48.5847 33.0769 49.4134 30.6526 49.6179 28.1376C49.8224 25.6225 49.3961 23.0962 48.3776 20.7874ZM34.5001 4.16667C30.2535 4.16667 24.966 5.56579 21.4853 6.66917C20.6132 6.94596 20.1013 7.91663 20.4482 8.89867L24.2854 19.7694C31.0858 17.6081 37.9145 17.6081 44.7149 19.7694L48.5521 8.89867C48.899 7.91663 48.3871 6.94596 47.515 6.67106C44.0343 5.56579 38.7449 4.16667 34.5001 4.16667ZM45.5074 24.0369C45.4066 24.0166 45.3058 23.988 45.2097 23.9516C38.0548 21.269 30.9455 21.269 23.7906 23.9516C23.6939 23.9881 23.5943 24.0166 23.4929 24.0369C23.0551 25.7188 23.0085 27.4786 23.3567 29.1813C23.7049 30.884 24.4386 32.4842 25.5015 33.8592C26.5644 35.2342 27.9282 36.3474 29.4883 37.1133C31.0484 37.8792 32.7632 38.2774 34.5011 38.2774C36.239 38.2774 37.9538 37.8792 39.5139 37.1133C41.074 36.3474 42.4378 35.2342 43.5007 33.8592C44.5636 32.4842 45.2973 30.884 45.6455 29.1813C45.9937 27.4786 45.9452 25.7188 45.5074 24.0369Z" fill="#879083"/>
<path d="M53.4583 53.4587H57.25V57.2503H53.4583V61.042H49.6667V57.2503H45.875V53.4587H49.6667V49.667H53.4583V53.4587Z" fill="#879083"/>
<path fill-rule="evenodd" clip-rule="evenodd" d="M20.9998 42.083C20.9998 42.083 0.375 48.5156 0.375 56.2392V68.6247H68.625V56.2392C68.625 48.5156 48.0002 42.083 48.0002 42.083L36.6783 50.0322C36.0402 50.4801 35.2796 50.7204 34.5 50.7204C33.7204 50.7204 32.9598 50.4801 32.3217 50.0322L20.9998 42.083ZM48.6069 46.2918L38.8585 53.1357C37.5821 54.0319 36.0605 54.5127 34.5009 54.5127C32.9414 54.5127 31.4197 54.0319 30.1434 53.1357L20.3931 46.2918C17.6562 47.2509 14.98 48.3753 12.3794 49.6588C9.92242 50.8835 7.67396 52.2428 6.09283 53.6248C4.38469 55.1169 4.16667 56.0041 4.16667 56.2392V64.833H64.8333V56.2392C64.8333 56.0041 64.6153 55.1169 62.9072 53.6229C61.326 52.2428 59.0776 50.8835 56.6187 49.6569C54.428 48.5773 52.1836 47.6104 49.8942 46.76C49.4202 46.5818 48.988 46.4283 48.6069 46.2918Z" fill="#879083"/>
</svg>
