<svg width="51" height="51" viewBox="0 0 51 51" fill="none" xmlns="http://www.w3.org/2000/svg">
<path d="M39.3125 19.125H35.0625M35.0625 19.125H30.8125M35.0625 19.125V14.875M35.0625 19.125V23.375" stroke="#AEB1B5" stroke-width="3.1875" stroke-linecap="round"/>
<path d="M25.5 11.8451L24.3355 12.9331C24.4846 13.0927 24.6649 13.2199 24.8652 13.3069C25.0655 13.3939 25.2816 13.4388 25.5 13.4388C25.7184 13.4388 25.9345 13.3939 26.1348 13.3069C26.3351 13.2199 26.5154 13.0927 26.6645 12.9331L25.5 11.8451ZM5.6355 29.0746C5.74064 29.2599 5.88185 29.4222 6.05079 29.552C6.21973 29.6817 6.41297 29.7763 6.61908 29.8301C6.8252 29.8839 7.04 29.8958 7.25081 29.8652C7.46161 29.8346 7.66414 29.762 7.84641 29.6517C8.02868 29.5415 8.18701 29.3958 8.31202 29.2233C8.43703 29.0509 8.5262 28.8551 8.57426 28.6475C8.62231 28.44 8.62828 28.225 8.5918 28.0151C8.55532 27.8052 8.47714 27.6048 8.36188 27.4256L5.6355 29.0746ZM13.8911 34.3638C13.7471 34.2059 13.5728 34.0786 13.3787 33.9894C13.1845 33.9003 12.9743 33.8511 12.7607 33.8447C12.5471 33.8384 12.3345 33.8751 12.1353 33.9527C11.9362 34.0302 11.7547 34.147 11.6017 34.2961C11.4486 34.4451 11.327 34.6235 11.2443 34.8205C11.1615 35.0175 11.1192 35.2291 11.1199 35.4428C11.1206 35.6565 11.1642 35.8679 11.2482 36.0643C11.3322 36.2608 11.4549 36.4384 11.6089 36.5865L13.8911 34.3638ZM5.84375 19.8011C5.84375 13.628 8.53825 9.81364 11.8702 8.50677C15.1959 7.20414 19.8475 8.1349 24.3355 12.9331L26.6645 10.7571C21.59 5.3299 15.6166 3.61715 10.7079 5.53815C5.8055 7.45915 2.65625 12.7334 2.65625 19.8011H5.84375ZM32.9587 42.4154C36.1314 39.842 39.9309 36.3931 42.9526 32.5405C45.9425 28.7283 48.3438 24.2976 48.3438 19.7969H45.1562C45.1562 23.2224 43.2863 26.9454 40.443 30.5728C37.6295 34.1619 34.034 37.4408 30.9527 39.9398L32.9587 42.4154ZM48.3438 19.7969C48.3438 12.7313 45.1945 7.45702 40.29 5.53815C35.3812 3.61502 29.41 5.32564 24.3355 10.755L26.6645 12.9331C31.1525 8.1349 35.8041 7.20202 39.1297 8.50465C42.4618 9.8094 45.1562 13.6259 45.1562 19.7969H48.3438ZM18.0412 42.4175C20.74 44.6105 22.6143 46.2191 25.5 46.2191V43.0316C23.9636 43.0316 23.0074 42.3431 20.0473 39.9419L18.0412 42.4175ZM30.9527 39.9398C27.9926 42.341 27.0364 43.0316 25.5 43.0316V46.2191C28.3857 46.2191 30.2621 44.6105 32.9609 42.4175L30.9527 39.9398ZM8.364 27.4256C6.77238 24.7991 5.84375 22.2173 5.84375 19.8011H2.65625C2.65625 23.0141 3.88025 26.1761 5.6355 29.0746L8.364 27.4256ZM20.0473 39.9419C17.8895 38.2026 15.8341 36.3401 13.8911 34.3638L11.6089 36.5865C13.6381 38.6525 15.7872 40.5994 18.0412 42.4175L20.0473 39.9419Z" fill="#AEB1B5"/>
</svg>
