<svg width="91" height="91" viewBox="0 0 91 91" fill="none" xmlns="http://www.w3.org/2000/svg">
<g id="solar:programming-broken">
<g id="Group">
<path id="Vector" d="M64.4582 56.8753H45.4998M26.5415 37.917L27.4288 38.6564C32.2897 42.7059 34.7201 44.7306 34.7201 47.3962C34.7201 50.0617 32.2935 52.0865 27.4288 56.136L26.5415 56.8753" stroke="#C9DEEE" stroke-width="3.1875" stroke-linecap="round"/>
<path id="Vector_2" d="M83.4166 45.5002C83.4166 63.3741 83.4166 72.311 77.8618 77.862C72.3146 83.4168 63.3738 83.4168 45.4999 83.4168C27.626 83.4168 18.689 83.4168 13.1343 77.862C7.58325 72.3148 7.58325 63.3741 7.58325 45.5002C7.58325 27.6262 7.58325 18.6893 13.1343 13.1345C18.6928 7.5835 27.626 7.5835 45.4999 7.5835C63.3738 7.5835 72.3108 7.5835 77.8618 13.1345C81.5549 16.8276 82.791 22.0184 83.208 30.3335" stroke="#C9DEEE" stroke-width="3.1875" stroke-linecap="round"/>
</g>
</g>
</svg>
