<svg width="48" height="48" viewBox="0 0 48 48" fill="none" xmlns="http://www.w3.org/2000/svg">
<path d="M23.9062 0C26.1143 0 28.231 0.282227 30.2563 0.84668C32.2817 1.41113 34.1909 2.20801 35.9839 3.2373C37.7769 4.2666 39.3872 5.51172 40.8149 6.97266C42.2427 8.43359 43.4878 10.0522 44.5503 11.8286C45.6128 13.605 46.418 15.5059 46.9658 17.5312C47.5137 19.5566 47.7959 21.6816 47.8125 23.9062C47.8125 26.1143 47.5303 28.231 46.9658 30.2563C46.4014 32.2817 45.6045 34.1909 44.5752 35.9839C43.5459 37.7769 42.3008 39.3872 40.8398 40.8149C39.3789 42.2427 37.7603 43.4878 35.9839 44.5503C34.2075 45.6128 32.3066 46.418 30.2812 46.9658C28.2559 47.5137 26.1309 47.7959 23.9062 47.8125C21.6982 47.8125 19.5815 47.5303 17.5562 46.9658C15.5308 46.4014 13.6216 45.6045 11.8286 44.5752C10.0356 43.5459 8.42529 42.3008 6.99756 40.8398C5.56982 39.3789 4.32471 37.7603 3.26221 35.9839C2.19971 34.2075 1.39453 32.3066 0.84668 30.2812C0.298828 28.2559 0.0166016 26.1309 0 23.9062C0 21.6982 0.282227 19.5815 0.84668 17.5562C1.41113 15.5308 2.20801 13.6216 3.2373 11.8286C4.2666 10.0356 5.51172 8.42529 6.97266 6.99756C8.43359 5.56982 10.0522 4.32471 11.8286 3.26221C13.605 2.19971 15.5059 1.39453 17.5312 0.84668C19.5566 0.298828 21.6816 0.0166016 23.9062 0ZM35.1372 25.5C35.3032 27.625 35.793 29.667 36.6064 31.626C37.4199 33.585 38.5405 35.3696 39.9683 36.98C41.313 35.353 42.3672 33.5601 43.1309 31.6011C43.8945 29.6421 44.376 27.6084 44.5752 25.5H35.1372ZM44.5752 22.3125C44.3926 20.2041 43.9194 18.1704 43.1558 16.2114C42.3921 14.2524 41.3296 12.4595 39.9683 10.8325C38.5571 12.4429 37.4448 14.2275 36.6313 16.1865C35.8179 18.1455 35.3198 20.1875 35.1372 22.3125H44.5752ZM37.752 8.5166C36.042 6.97266 34.1494 5.75244 32.0742 4.85596C29.999 3.95947 27.8076 3.41992 25.5 3.2373V22.3125H31.9248C32.1074 19.7393 32.6885 17.2739 33.668 14.9165C34.6475 12.5591 36.0088 10.4258 37.752 8.5166ZM22.3125 3.2373C20.0215 3.41992 17.8384 3.95947 15.7632 4.85596C13.688 5.75244 11.7871 6.97266 10.0605 8.5166C11.7871 10.4258 13.1401 12.5591 14.1196 14.9165C15.0991 17.2739 15.6885 19.7393 15.8877 22.3125H22.3125V3.2373ZM7.84424 36.98C9.25537 35.3696 10.3677 33.585 11.1812 31.626C11.9946 29.667 12.4927 27.625 12.6753 25.5H3.2373C3.41992 27.6084 3.89307 29.6421 4.65674 31.6011C5.42041 33.5601 6.48291 35.353 7.84424 36.98ZM12.6753 22.3125C12.5093 20.1875 12.0195 18.1455 11.2061 16.1865C10.3926 14.2275 9.27197 12.4429 7.84424 10.8325C6.49951 12.4595 5.44531 14.2524 4.68164 16.2114C3.91797 18.1704 3.43652 20.2041 3.2373 22.3125H12.6753ZM10.0605 39.2959C11.7705 40.8398 13.6631 42.0601 15.7383 42.9565C17.8135 43.853 20.0049 44.3926 22.3125 44.5752V25.5H15.8877C15.7051 28.0732 15.124 30.5386 14.1445 32.896C13.165 35.2534 11.8037 37.3867 10.0605 39.2959ZM25.5 44.5752C27.791 44.3926 29.9741 43.853 32.0493 42.9565C34.1245 42.0601 36.0254 40.8398 37.752 39.2959C36.0254 37.3867 34.6724 35.2534 33.6929 32.896C32.7134 30.5386 32.124 28.0732 31.9248 25.5H25.5V44.5752Z" fill="#AEB1B5"/>
</svg>
